# xmcd
#
# Track frame offsets:
#	150
#	14203
#	31647
#	48433
#	63961
#	77375
#	99782
#	116035
#	126884
#	142627
#	158901
#	174459
#
# Disc length: 2556 seconds
#
# Revision: 0
# Processed by: cddbd v1.5.2PL0 Copyright (c) Steve Scherf et al.
# Submitted via: EasyCDDAExtractor 11.0.2.1
#
DISCID=8b09fa0c
DTITLE=Призрачный свет - Такси
DYEAR=2008
DGENRE=Chanson
TTITLE0=Призрачный свет 
TTITLE1=Такси
TTITLE2=Женщина в зарубежье 
TTITLE3=Письмо
TTITLE4=Гимнастерочка 
TTITLE5=Багряный рассвет 
TTITLE6=Разбитое сердце 
TTITLE7=Бандитская 
TTITLE8=Душа болит 
TTITLE9=Песня памяти 
TTITLE10=Серпантин дорог 
TTITLE11=Такси (2-я версия) 
EXTD=
EXTT0=
EXTT1=
EXTT2=
EXTT3=
EXTT4=
EXTT5=
EXTT6=
EXTT7=
EXTT8=
EXTT9=
EXTT10=
EXTT11=
PLAYORDER=
